<?xml version="1.0" encoding="utf-8"?>
<!-- Generator: Adobe Illustrator 18.1.1, SVG Export Plug-In . SVG Version: 6.00 Build 0)  -->
<svg version="1.1" id="Layer_1" xmlns="http://www.w3.org/2000/svg" xmlns:xlink="http://www.w3.org/1999/xlink" x="0px" y="0px"
	 viewBox="-3.9 3.7 316.8 316.8" enable-background="new -3.9 3.7 316.8 316.8" xml:space="preserve">
<path fill="#030204" d="M163.2,188.3h-19.4c-1,0-1.8,0.3-2.5,1c-0.6,0.7-0.9,1.5-0.9,2.4v14.6c0,0.9,0.3,1.6,1,2.4
	c1.4,1.4,3.4,1.4,4.7,0.1c0.7-0.7,1-1.5,1-2.4v-11.2h12.7v61.3h-12.7v-30.5c0-1-0.3-1.9-1-2.6c-0.7-0.7-1.4-1.1-2.4-1.1h-16.1V192
	c0-1-0.3-1.9-1-2.6c-0.7-0.7-1.4-1.1-2.4-1.1h-19.5c-1,0-1.8,0.3-2.4,0.9c-0.7,0.7-1,1.5-1,2.4v68.2c0,0.9,0.3,1.7,0.9,2.4
	c0.7,0.7,1.5,1,2.5,1h19.5c1,0,1.8-0.3,2.4-1.1c0.7-0.7,1-1.6,1-2.6v-14.4c0-0.9-0.3-1.7-1-2.4c-1.4-1.4-3.4-1.3-4.8,0
	c-0.6,0.6-0.9,1.5-0.9,2.4v11.2h-12.7v-61.3h12.7v30.7c0,1,0.3,1.8,0.9,2.4c0.6,0.6,1.5,0.9,2.5,0.9h16.1v30.7
	c0,0.9,0.3,1.7,0.9,2.4c0.7,0.7,1.5,1,2.5,1h19.4c1,0,1.8-0.3,2.5-1c0.6-0.7,0.9-1.5,0.9-2.4v-68.2c0-0.9-0.3-1.7-0.9-2.4
	C165,188.6,164.3,188.3,163.2,188.3"/>
<path fill="#030204" d="M148.8,211.2c0,2.8-2.3,5.1-5.1,5.1c-2.8,0-5.1-2.3-5.1-5.1c0-2.8,2.3-5.1,5.1-5.1
	C146.6,206,148.8,208.4,148.8,211.2"/>
<path fill="#030204" d="M208.7,188.3h-19.4c-0.9,0-1.7,0.3-2.3,1c-0.7,0.7-1.1,1.5-1.1,2.4c0,0.9,0.3,1.7,1,2.4
	c0.7,0.6,1.5,0.9,2.4,0.9h16v61.3h-12.7v-45.3c0-0.9-0.3-1.7-1-2.3c-0.7-0.7-1.5-1-2.4-1s-1.7,0.3-2.4,1c-0.6,0.7-0.9,1.5-0.9,2.4
	v48.7c0,0.9,0.3,1.7,0.9,2.4c0.7,0.7,1.5,1,2.5,1h19.4c1,0,1.8-0.3,2.5-1c0.6-0.7,0.9-1.5,0.9-2.4v-68.2c0-0.9-0.3-1.7-0.9-2.4
	C210.5,188.6,209.7,188.3,208.7,188.3"/>
<path fill="#030204" d="M194.1,211.2c0,2.8-2.3,5.1-5.1,5.1c-2.8,0-5.1-2.3-5.1-5.1c0-2.8,2.3-5.1,5.1-5.1
	C191.9,206,194.1,208.4,194.1,211.2"/>
<path fill="#030204" d="M85.2,249.9c0-0.9-0.3-1.7-1-2.4c-1.5-1.5-3.6-1.4-5,0.1l-1,1.1l-0.2-0.2c-5.7,5.3-12.7,8-20.7,8
	c-8.4,0-15.7-3-21.7-9c-6-6-9-13.3-9-21.7s3-15.7,9-21.7c5.9-6,13.2-9,21.7-9c8.4,0,15.7,3,21.7,9c1.4,1.3,3.5,1.3,4.9,0
	c0.6-0.6,0.9-1.4,0.9-2.4c0-0.9-0.3-1.7-1-2.3c-7.3-7.3-16.2-11-26.5-11s-19.2,3.7-26.5,10.9c-7.3,7.3-10.9,16.2-10.9,26.6
	c0,10.3,3.7,19.2,10.9,26.5c7.3,7.3,16.2,11,26.5,11c9.8,0,18.4-3.4,25.6-10.2l0.3-0.2C84.6,252.2,85.2,251.3,85.2,249.9"/>
<path fill="#030204" d="M65.4,217.9c1.4,1.4,3.5,1.3,4.8,0c0.6-0.7,1-1.5,1-2.4c0-1-0.3-1.8-1-2.4c-3.7-3.6-7.8-5.3-12.7-5.3
	c-5,0-9.2,1.7-12.7,5.3c-3.6,3.6-5.3,7.7-5.3,12.7s1.7,9.2,5.3,12.7c3.6,3.6,7.7,5.3,12.7,5.3s9.2-1.7,12.7-5.3c0.6-0.7,1-1.5,1-2.4
	s-0.3-1.7-1-2.4l-0.9-0.9h-1.5c-0.9,0-1.7,0.3-2.4,1l-0.2,0.2c-2.2,2.1-4.8,3.1-7.8,3.1c-3,0-5.7-1.1-7.9-3.3
	c-2.2-2.2-3.3-4.8-3.3-7.9s1.1-5.7,3.3-7.9c2.2-2.2,4.8-3.3,7.9-3.3c3,0,5.6,1,7.8,3.1L65.4,217.9z"/>
<path fill="#030204" d="M87.7,203.4c0,2.8-2.3,5.1-5.1,5.1c-2.8,0-5.1-2.3-5.1-5.1c0-2.8,2.3-5.1,5.1-5.1
	C85.5,198.3,87.7,200.6,87.7,203.4"/>
<path fill="#030204" d="M82.6,252.9c-0.9,0-1.7-0.3-2.3-1l-13.4-14.1c-1.2-1.3-1.2-3.3,0.2-4.6c1.3-1.2,3.3-1.2,4.6,0.2L85,247.4
	c1.2,1.3,1.2,3.3-0.2,4.6C84.2,252.5,83.4,252.9,82.6,252.9"/>
<path fill="#030204" d="M269.5,213.6c0.6-0.7,1-1.5,1-2.4c0-0.9-0.3-1.7-1-2.4s-1.5-1-2.4-1h-14.6c-1,0-1.8,0.3-2.5,1.1
	c-0.6,0.7-0.9,1.6-0.9,2.6v48.4c0,0.9,0.3,1.7,1,2.4c1.3,1.2,3.3,1.4,4.8-0.1c0.7-0.7,1-1.4,1-2.4v-45.3h11.2
	C268.1,214.6,268.9,214.3,269.5,213.6"/>
<path fill="#030204" d="M285.4,225.9c3.1-4.1,4.7-9.1,4.7-14.7c0-6.1-2.2-11.3-6.7-15.8c-4.7-4.7-9.9-7-16.1-7h-34.1
	c-1,0-1.8,0.3-2.5,1c-0.6,0.6-0.9,1.4-0.9,2.4V260c0,0.9,0.3,1.7,1,2.3c1.4,1.5,3.4,1.4,4.8,0.1c0.6-0.7,0.9-1.5,0.9-2.4v-64.7h31.1
	c4.3,0.1,8,1.9,11.2,5.2c3,3.3,4.5,6.9,4.5,10.9c0,6.8-2.7,11.8-8,14.6c-0.4,0.2-1.3,0.6-4.3,1.6c-1.6,0.5-2.3,1.6-2.3,3.3
	c0,1.2,0.5,2,1.5,2.7s1.9,0.9,3,0.5C278.3,232.6,282.3,229.9,285.4,225.9"/>
<path fill="#030204" d="M273.9,211.2c0,2.8-2.3,5.1-5.1,5.1c-2.8,0-5.1-2.3-5.1-5.1c0-2.8,2.3-5.1,5.1-5.1
	C271.6,206,273.9,208.4,273.9,211.2"/>
<path fill="#030204" d="M252.5,263.3h-18.9c-1.8,0-3.3-1.5-3.3-3.3s1.5-3.3,3.3-3.3h18.9c1.8,0,3.3,1.5,3.3,3.3
	S254.3,263.3,252.5,263.3"/>
<path d="M208.5,62.8c2.1,0,3.7-1.7,3.7-3.7c0-2.1-1.7-3.7-3.7-3.7h-12v-12c0-2.1-1.7-3.7-3.7-3.7h-12v-12c0-2.1-1.7-3.7-3.7-3.7
	c-2.1,0-3.7,1.7-3.7,3.7v12h-18v-12c0-2.1-1.7-3.7-3.7-3.7c-2,0-3.7,1.7-3.7,3.7v12h-18v-12c0-2.1-1.7-3.7-3.7-3.7
	c-2.1,0-3.7,1.7-3.7,3.7v12h-12c-2.1,0-3.7,1.7-3.7,3.7v12H94.4c-2.1,0-3.7,1.7-3.7,3.7c0,2.1,1.7,3.7,3.7,3.7h12v18.2h-12
	c-2.1,0-3.7,1.7-3.7,3.7c0,2.1,1.7,3.7,3.7,3.7h12v18h-12c-2.1,0-3.7,1.7-3.7,3.7c0,2.1,1.7,3.7,3.7,3.7h12v12.1
	c0,2.1,1.7,3.7,3.7,3.7h12v12c0,2.1,1.7,3.7,3.7,3.7c2.1,0,3.7-1.7,3.7-3.7v-12h18v12c0,2.1,1.7,3.7,3.7,3.7c2,0,3.7-1.7,3.7-3.7
	v-12h18v12c0,2.1,1.7,3.7,3.7,3.7c2.1,0,3.7-1.7,3.7-3.7v-12h12c2.1,0,3.7-1.7,3.7-3.7v-12h12.2c2.1,0,3.7-1.7,3.7-3.7
	c0-2.1-1.7-3.7-3.7-3.7h-12v-18h12c2.1,0,3.7-1.7,3.7-3.7c0-2.1-1.7-3.7-3.7-3.7h-12V62.8H208.5z M137.6,60c-6,0-10.8,4.8-10.8,10.8
	c0,6,4.8,10.8,10.8,10.8c1.6,0,3.1-0.4,4.5-1c5.4,3.7,15.7,7.8,34.9,7.8h12v33.8h-75.1V47H189v33.8h-12c-16.5,0-25.1-3.1-29.5-5.7
	c0.5-1.3,0.9-2.8,0.9-4.3C148.4,64.8,143.6,60,137.6,60"/>
<text transform="matrix(1 0 0 1 103.2256 287.347)" display="none" fill="#BC519E" enable-background="new    " font-family="'HighVoltage'" font-size="34.0282">boot repair tool!</text>
<g display="none">
	
		<text transform="matrix(1 0 0 1 43.9184 202.5336)" display="inline" fill="#E90A8A" font-family="'HighVoltage'" font-size="34.0282">boot repair tool!</text>
</g>
<g enable-background="new    ">
	<path fill="#E90A8A" d="M9.2,274.6c1.6-5.2,3.6-11.5,5.4-16.9c0.4-1.2,0.8-2.1,1.4-3c0.3-0.5,0.5-0.6,0.9-0.8
		c2.6-1.2,3.9,0.8,3.3,3.1c-2.1,7.6-3.4,11-4.9,16.8c1.9-1.2,3-1.9,5.8-2.2c8.1-0.9,7.6,9.8,4.3,15.1c-2,3.2-8.5,9.3-13.9,7.8
		c-0.8,0.1-3.1-2.6-3.1-3.3c-0.8,0.9-1.6,3.3-3,3.5c-3.8,0.6-2.2-3-0.9-7.1C5.7,284,7.7,278.6,9.2,274.6z M20.6,284.2
		c0.9-1.6,3.6-7.1,0.2-7.5c-3.7,0.9-5.2,3.5-7,6.5c-0.7,1.2-2.2,5.4,0.8,5.7C17.5,288,19.2,286.7,20.6,284.2z"/>
	<path fill="#E90A8A" d="M27.4,291.2c-0.4-1.3-0.6-2.6-0.6-4.1c0-2.1,0.3-3.8,1.4-6.5c2.5-5.2,6.7-9.8,12.7-9.7
		c2.4,0.1,5.5,2.4,5.9,4.9c0.1,0.7,0.1,1.3,0.1,2c0,8.6-6.6,16.5-13.7,16.5c-0.9,0-1.7-0.1-2.6-0.3
		C29.3,293.7,27.8,292.5,27.4,291.2z M35.6,278.7c-1.9,3-2.6,3.7-2.9,6.6c-0.2,2.3,0.5,3.4,1.5,3.4c1.3,0,3.2-1.4,4.2-2.8
		c0,0,0.1-0.1,0.2-0.3c0.5-0.9,2.9-4.4,2.9-7.1c0-1.2-0.5-2.2-1.9-2.4c-1.2-0.3-3.4,1.9-4,2.5V278.7z"/>
	<path fill="#E90A8A" d="M46.1,291.2c-0.4-1.3-0.6-2.6-0.6-4.1c0-2.1,0.3-3.8,1.4-6.5c2.5-5.2,6.7-9.8,12.7-9.7
		c2.4,0.1,5.5,2.4,5.9,4.9c0.1,0.7,0.1,1.3,0.1,2c0,8.6-6.6,16.5-13.7,16.5c-0.9,0-1.7-0.1-2.6-0.3
		C48.1,293.7,46.6,292.5,46.1,291.2z M54.3,278.7c-1.9,3-2.6,3.7-2.9,6.6c-0.2,2.3,0.5,3.4,1.5,3.4c1.3,0,3.2-1.4,4.2-2.8
		c0,0,0.1-0.1,0.2-0.3c0.5-0.9,2.9-4.4,2.9-7.1c0-1.2-0.5-2.2-1.9-2.4c-1.2-0.3-3.4,1.9-4,2.5V278.7z"/>
	<path fill="#E90A8A" d="M78.4,273.9c2.8-0.8,5.2-1.3,5.9-1.4c1.6,0.2,2.4,1.3,2.4,2.3c-0.1,0.8,0.2,1.6-1.4,2.6
		c-5.9,2-8,2.5-8.9,2.9c-2.2,5.1-4.3,13.7-6.9,18.3c-0.9,1.1-1.4,1.5-2.4,1.6c-1.1,0.2-2.2-0.9-2.2-2.4c0.1-0.8,0.4-2.1,1-3.8
		c1.5-4.4,3.1-9.7,4-11.9c-1.8,0.2-3.5,1.3-5.5,1c-0.8-0.4-1.6-2.3-0.6-3.8c0.3-1.3,1.5-1.5,7.9-3.1l3.7-9.7c0.3-1.1,2.2-6,4.4-11.1
		c0.3-0.9,1-2.2,2.1-2.6c1-0.3,2.7,0.1,3,0.9c0.2,0.6,0.2,1.3-0.1,1.9l-2.1,6.2l-4.1,11.2c-0.1,0.1-0.1,0.2-0.1,0.3L78.4,273.9z"/>
	<path fill="#E90A8A" d="M114.3,275.6c-0.1,2-1.5,6.2-2.8,7.7c-0.9,1-2.7,1.4-3.8,0.1c-1.1-1.4,0.6-3.2,0.5-4.9
		c-4.8,0.9-7,8-8.9,11.5c-0.8,1.4-0.9,3.6-2.2,4.1c-1.3,0.7-3.1,0.3-3.7-0.9c-0.5-1.5,1-4.7,1.6-6.8c0.9-3.1,2.6-6.6,3.6-9.7
		c-2.3,0.9-4.3,0.9-3.6-2.4c0.9-1.3,1.3-2.4,5.8-3.7c2.9-0.9,3.2,1.7,2.6,4.1c-0.1,0.1-0.4,1.3-0.3,1.3c1.2-1.2,2.1-1.7,3.7-2.7
		C109.6,271.3,114.8,270.5,114.3,275.6z"/>
	<path fill="#E90A8A" d="M121.6,286.3c-0.7,0.2-1.9,0.5-2.4,0.5c-0.4,1.7,0.3,2.5,1.7,2.5c2.9,0,8.9-3.1,11.4-4.9
		c0.6-0.4,1.4-0.6,2.2-0.4c2.1,0.9-0.1,4.1-1.1,4.9c-4.1,3.6-7.5,5.3-13.1,5.9c-2.6,0.2-5.2-0.9-6.4-3c-0.6-1.1-0.9-2.3-0.9-3.7
		c0-5.4,4.7-12.3,7.7-14.8c1.7-1.4,4.2-2.3,6.5-2.3c3,0,5.8,1.7,5.8,5.8c-0.2,3.3-3.6,5.8-5.8,7
		C126.4,284.4,122.3,286.1,121.6,286.3z M126.9,276.1L126.9,276.1c-1-0.2-2,0.2-3,0.8c-1,0.8-3.8,3.8-3.5,5.2
		c2.3-0.3,5.2-1.7,6.4-3.8C127.1,277.7,127.6,276.3,126.9,276.1z"/>
	<path fill="#E90A8A" d="M147.9,272.5c1.6-0.5,3.8-0.3,5.2,0.2c7.9,3.4-0.8,16.4-5.2,19.4c-2.7,2.1-5.6,3.2-8.6,1.3
		c-0.9-0.6-1.6-1-2.2-1.7c-1,3-2.1,6.1-3.2,9.1c-0.6,1.6-1.4,3.8-1.9,5.6c-0.4,1-0.6,1.9-1,2.8c-1,1.8-3.4,2.3-4.4,0.3
		c-0.8-1.5,0-3.1,0.5-4.6c1.2-3.3,2.2-6.6,3.3-9.8c0.8-2.2,1.5-4.3,2.3-6.4c0.6-2.1,2.3-6.9,3.1-9c0.9-2.3,2.2-7.5,4.1-8.6
		c1.3-0.2,2,0.1,2.7,0.8c0.9,1.3,0.1,3.1-0.4,4.4C143.5,274.4,145.8,273.2,147.9,272.5z M141.7,287c0.5,1,0.9,1,2,1.4
		c3.2-0.9,6.1-6.3,6.3-8C150.1,271.4,140,282.9,141.7,287z"/>
	<path fill="#E90A8A" d="M181.4,287.2c-1.1,2.2-4.2,4-6.2,5.5c-0.7,0.3-1.6,0.8-2.7,1c-1.4,0.2-2.9-0.8-3.6-1.6
		c-0.1-0.1-0.4-0.5-0.5-0.8c-0.1-0.7-0.1-1.6,0.2-2.3c0-0.1,0-0.1,0-0.1c-1,0.9-2.3,1.7-3.6,2.7c-1.7,1.2-3.7,2.3-6.6,2.2
		c-2.3,0-3.5-1.3-4-4c-1-5.6,3.3-12,7.5-15.4c2.2-1.8,8.6-5.1,11.5-2c1.2,0.9,1.4,2.1,1.4,3.4c0,4-1.8,7.5-1.9,11.4
		c2.4,1.3,4.6-3.2,7-3.2c1.3,0.2,1.7,1.3,1.7,2.1C181.7,286.4,181.4,286.8,181.4,287.2z M168.9,276.9c-2.2-0.3-3.8,1.5-5.1,3.1
		c-1.6,1.8-3.1,3.8-3.6,6.3c-0.3,1.6,0.9,1.9,2.1,1.5C164.7,286.7,170.2,280.1,168.9,276.9z"/>
	<path fill="#E90A8A" d="M180.8,294.8c-0.6-0.1-1.2-0.3-1.6-0.6c-0.4-0.2-0.9-0.8-1-1.3c-0.1-0.6,0.1-1.3,0.2-1.8
		c0.5-1.7,1-3.3,1.6-4.8c0.8-2.2,2-6.3,2.9-8.3c-0.8,0.2-1.2,0.2-1.9,0.3c-0.8,0.1-1.5-0.4-1.9-0.8c-0.5-0.5-0.5-1-0.5-1.5
		c0.1-0.9,0.8-1.6,1.4-2c2.2-1.5,6.1-2.8,8.4-2.2c0.3,0.1,0.6,0.3,0.8,0.6c0.2,0.2,0.3,0.5,0.4,0.9c0.1,0.8-0.1,1.6-0.3,2.3
		c-0.9,3.1-2.4,6.5-3.7,9.7c-0.5,1.2-0.9,2.6-1.6,3.7c1.1-0.4,2.2-1.2,3.3-1.6c1.2-0.5,3.1-0.7,3.5,0.8c0.2,0.9-0.4,1.9-0.8,2.4
		c-1.2,1.5-2.4,2-4,2.6c-1.6,0.7-3.1,1.3-4.9,1.6C181,294.8,180.9,294.8,180.8,294.8z M189.4,264.3c0.9,0.1,1.6,0.4,2,0.9
		c0.5,0.5,0.6,1.3,0.5,2.2c-0.1,0.8-0.5,1.4-1,1.9c-0.4,0.5-1.1,0.9-1.9,0.9c-0.9,0.1-1.5-0.3-2-0.8c-0.4-0.5-0.6-1.2-0.5-2.2
		c0.3-1.5,1.5-2.4,2.7-2.9C189.3,264.3,189.3,264.3,189.4,264.3z"/>
	<path fill="#E90A8A" d="M211.4,275.6c-0.1,2-1.5,6.2-2.8,7.7c-0.9,1-2.7,1.4-3.8,0.1c-1.1-1.4,0.6-3.2,0.5-4.9
		c-4.8,0.9-7,8-8.9,11.5c-0.8,1.4-0.9,3.6-2.2,4.1c-1.3,0.7-3.1,0.3-3.7-0.9c-0.5-1.5,1-4.7,1.6-6.8c0.9-3.1,2.6-6.6,3.6-9.7
		c-2.3,0.9-4.3,0.9-3.6-2.4c0.9-1.3,1.3-2.4,5.8-3.7c2.9-0.9,3.2,1.7,2.6,4.1c-0.1,0.1-0.4,1.3-0.3,1.3c1.2-1.2,2.1-1.7,3.7-2.7
		C206.7,271.3,211.9,270.5,211.4,275.6z"/>
	<path fill="#E90A8A" d="M236.9,273.9c2.8-0.8,5.2-1.3,5.9-1.4c1.6,0.2,2.4,1.3,2.4,2.3c-0.1,0.8,0.2,1.6-1.4,2.6
		c-5.9,2-8,2.5-8.9,2.9c-2.2,5.1-4.3,13.7-6.9,18.3c-0.9,1.1-1.4,1.5-2.4,1.6c-1.1,0.2-2.2-0.9-2.2-2.4c0.1-0.8,0.4-2.1,1-3.8
		c1.5-4.4,3.1-9.7,4-11.9c-1.8,0.2-3.5,1.3-5.5,1c-0.8-0.4-1.6-2.3-0.6-3.8c0.3-1.3,1.5-1.5,7.9-3.1l3.7-9.7c0.3-1.1,2.2-6,4.4-11.1
		c0.3-0.9,1-2.2,2.1-2.6c1-0.3,2.7,0.1,3,0.9c0.2,0.6,0.2,1.3-0.1,1.9l-2.1,6.2l-4.1,11.2c-0.1,0.1-0.1,0.2-0.1,0.3L236.9,273.9z"/>
	<path fill="#E90A8A" d="M239.2,291.2c-0.4-1.3-0.6-2.6-0.6-4.1c0-2.1,0.3-3.8,1.4-6.5c2.5-5.2,6.7-9.8,12.7-9.7
		c2.4,0.1,5.5,2.4,5.9,4.9c0.1,0.7,0.1,1.3,0.1,2c0,8.6-6.6,16.5-13.7,16.5c-0.9,0-1.7-0.1-2.6-0.3
		C241.1,293.7,239.6,292.5,239.2,291.2z M247.3,278.7c-1.9,3-2.6,3.7-2.9,6.6c-0.2,2.3,0.5,3.4,1.5,3.4c1.3,0,3.2-1.4,4.2-2.8
		c0,0,0.1-0.1,0.2-0.3c0.5-0.9,2.9-4.4,2.9-7.1c0-1.2-0.5-2.2-1.9-2.4c-1.2-0.3-3.4,1.9-4,2.5V278.7z"/>
	<path fill="#E90A8A" d="M257.9,291.2c-0.4-1.3-0.6-2.6-0.6-4.1c0-2.1,0.3-3.8,1.4-6.5c2.5-5.2,6.7-9.8,12.7-9.7
		c2.4,0.1,5.5,2.4,5.9,4.9c0.1,0.7,0.1,1.3,0.1,2c0,8.6-6.6,16.5-13.7,16.5c-0.9,0-1.7-0.1-2.6-0.3
		C259.8,293.7,258.3,292.5,257.9,291.2z M266.1,278.7c-1.9,3-2.6,3.7-2.9,6.6c-0.2,2.3,0.5,3.4,1.5,3.4c1.3,0,3.2-1.4,4.2-2.8
		c0,0,0.1-0.1,0.2-0.3c0.5-0.9,2.9-4.4,2.9-7.1c0-1.2-0.5-2.2-1.9-2.4c-1.2-0.3-3.4,1.9-4,2.5V278.7z"/>
	<path fill="#E90A8A" d="M291.1,263.2c-2.7,7.2-4.9,13.8-7.2,20.5c-1.2,3.4-2.4,6.6-3.6,9c-0.6,1.8-4.3,2.3-4.7,0
		c-0.4-2.4,0.3-2.9,0.6-4.4c1.3-5.1,4.6-13,6.2-18.1c2.4-7,3.4-9.5,5.7-15.3c0.3-0.8,2-1.9,3.5-1.3
		C294.4,254.7,292.8,257.8,291.1,263.2z"/>
	<path fill="#E90A8A" d="M290.4,297.8c-3.1-0.9-1.6-5.8,1.6-7C296.6,291,293.8,298.8,290.4,297.8z M302.6,260.9
		c-2.2,7.2-2.8,10.3-4.8,17c-1,3.4-2,6.6-2.9,9c-0.5,1.8-3.5,2.3-3.8,0c-0.3-2.4,0.2-2.9,0.6-4.4c1-5.1,2.5-9.5,3.8-14.6
		c2-7,2.8-9.5,4.7-15.3c0.3-0.8,1.6-1.9,2.9-1.3C305.4,252.4,304,255.5,302.6,260.9z"/>
</g>
</svg>
